<svg xmlns="http://www.w3.org/2000/svg" viewBox="0 0 50 50">
  <path d="M3.5625 1.59375L3.5625 4.1875L12.78125 4.1875L2.78125 16.28125L2.78125 18.71875L16.8125 18.71875L16.8125 16.125L6.59375 16.125L16.59375 3.875L16.59375 1.59375 Z M 39.78125 7.96875C38.75 8.082031 37.976563 8.964844 38 10L38 34.71875L33.53125 30.21875C33.101563 29.777344 32.488281 29.554688 31.875 29.625C31.097656 29.699219 30.433594 30.222656 30.179688 30.960938C29.921875 31.703125 30.121094 32.523438 30.6875 33.0625L38.59375 40.9375L40 42.34375L41.40625 40.9375L49.3125 33.0625C50.097656 32.277344 50.097656 31.003906 49.3125 30.21875C48.527344 29.433594 47.253906 29.433594 46.46875 30.21875L42 34.71875L42 10C42.007813 9.457031 41.796875 8.9375 41.414063 8.554688C41.03125 8.171875 40.511719 7.960938 39.96875 7.96875C39.90625 7.964844 39.84375 7.964844 39.78125 7.96875 Z M 8.1875 30.40625L1.625 47.53125L4.71875 47.53125L6.3125 43L13.15625 43L14.78125 47.53125L18 47.53125L11.375 30.40625 Z M 9.71875 33.34375L9.8125 33.34375L12.375 40.71875L7.125 40.71875Z" fill="#325166" />
</svg>