<svg xmlns="http://www.w3.org/2000/svg" xmlns:xlink="http://www.w3.org/1999/xlink" viewBox="0 0 48 48" fill="#FFFFFF">
  <path d="M43.5,20c-0.828,0-1.5,0.672-1.5,1.5v1h-2.076c-0.307-3.287-1.608-6.289-3.606-8.697l1.47-1.47l0.708,0.708c0.293,0.293,0.677,0.439,1.061,0.439s0.768-0.146,1.061-0.439c0.586-0.586,0.586-1.535,0-2.121l-3.536-3.536c-0.586-0.586-1.535-0.586-2.121,0s-0.586,1.535,0,2.121l0.708,0.708l-1.47,1.47c-2.408-1.997-5.41-3.298-8.697-3.606V6h1C27.328,6,28,5.328,28,4.5S27.328,3,26.5,3h-5C20.672,3,20,3.672,20,4.5S20.672,6,21.5,6h1v2.076c-3.287,0.307-6.289,1.608-8.697,3.606l-1.47-1.47l0.708-0.708c0.586-0.586,0.586-1.535,0-2.121s-1.535-0.586-2.121,0l-3.536,3.536c-0.586,0.586-0.586,1.535,0,2.121c0.293,0.293,0.677,0.439,1.061,0.439s0.768-0.146,1.061-0.439l0.708-0.708l1.47,1.47c-1.997,2.408-3.298,5.41-3.606,8.697H6v-1C6,20.672,5.328,20,4.5,20S3,20.672,3,21.5v5C3,27.328,3.672,28,4.5,28S6,27.328,6,26.5v-1h2.076c0.307,3.287,1.608,6.289,3.606,8.697l-1.47,1.47L9.504,34.96c-0.586-0.586-1.535-0.586-2.121,0s-0.586,1.535,0,2.121l3.536,3.536c0.293,0.293,0.677,0.439,1.061,0.439s0.768-0.146,1.061-0.439c0.586-0.586,0.586-1.535,0-2.121l-0.708-0.708l1.47-1.47c2.408,1.997,5.41,3.298,8.697,3.606V42h-1c-0.828,0-1.5,0.672-1.5,1.5s0.672,1.5,1.5,1.5h5c0.828,0,1.5-0.672,1.5-1.5S27.328,42,26.5,42h-1v-2.076c3.287-0.307,6.289-1.608,8.697-3.606l1.47,1.47l-0.708,0.708c-0.586,0.586-0.586,1.535,0,2.121c0.293,0.293,0.677,0.439,1.061,0.439s0.768-0.146,1.061-0.439l3.536-3.536c0.586-0.586,0.586-1.535,0-2.121s-1.535-0.586-2.121,0l-0.708,0.708l-1.47-1.47c1.997-2.408,3.298-5.41,3.606-8.697H42v1c0,0.828,0.672,1.5,1.5,1.5s1.5-0.672,1.5-1.5v-5C45,20.672,44.328,20,43.5,20z M33.5,24c0,1.381-1.119,2.5-2.5,2.5s-2.5-1.119-2.5-2.5c0-1.381,1.119-2.5,2.5-2.5S33.5,22.619,33.5,24z M24,19.5c-1.381,0-2.5-1.119-2.5-2.5c0-1.381,1.119-2.5,2.5-2.5s2.5,1.119,2.5,2.5C26.5,18.381,25.381,19.5,24,19.5z M26.5,31c0,1.381-1.119,2.5-2.5,2.5s-2.5-1.119-2.5-2.5c0-1.381,1.119-2.5,2.5-2.5S26.5,29.619,26.5,31z M19.5,24c0,1.381-1.119,2.5-2.5,2.5s-2.5-1.119-2.5-2.5c0-1.381,1.119-2.5,2.5-2.5S19.5,22.619,19.5,24z" fill="#FFFFFF" />
</svg>