<svg xmlns="http://www.w3.org/2000/svg" viewBox="0 0 50 50">
  <path d="M25 4C12.328125 4 2 12.878906 2 23.992188C2 30.445313 5.53125 36.0625 10.960938 39.730469C10.953125 39.945313 10.96875 40.296875 10.683594 41.34375C10.335938 42.644531 9.625 44.472656 8.1875 46.535156L7.164063 48L8.949219 48C15.140625 48 18.722656 43.964844 19.277344 43.316406C21.121094 43.75 23.019531 43.988281 25 43.988281C37.671875 43.988281 48 35.109375 48 23.992188C48 12.878906 37.671875 4 25 4 Z M 16 33C16.300781 28.601563 22.199219 29.199219 23.101563 26.898438C23.101563 26.101563 23.101563 25.5 23.101563 24.800781C22.699219 24.601563 22 23.398438 21.898438 22.398438C21.601563 22.398438 21.101563 22.101563 21 21C20.898438 20.398438 21.199219 20.101563 21.398438 20C20.398438 16.300781 21 13.101563 25.398438 13C26.5 13 27.300781 13.300781 27.699219 13.898438C30.898438 14.300781 30 18.601563 29.5 20C29.699219 20.101563 30 20.398438 29.898438 21C29.699219 22.101563 29.300781 22.398438 29 22.398438C28.898438 23.398438 28.300781 24.601563 27.898438 24.800781C27.898438 25.601563 27.800781 26.101563 27.898438 26.898438C28.699219 29.199219 34.601563 28.5 35 33Z" fill="#325166" />
</svg>