<svg xmlns="http://www.w3.org/2000/svg" xmlns:xlink="http://www.w3.org/1999/xlink" viewBox="0 0 24 24" fill="#FFFFFF">
  <path d="M3 3C1.9069372 3 1 3.9069372 1 5L1 15C1 16.093063 1.9069372 17 3 17L16 17C17.093063 17 18 16.093063 18 15L18 5C18 3.9069372 17.093063 3 16 3L3 3 z M 3 5L16 5L16 12L14.220703 10.220703C13.822703 9.8227031 13.177297 9.82175 12.779297 10.21875L10.048828 12.943359C9.6588281 13.332359 9.0257656 13.333312 8.6347656 12.945312C8.2417656 12.555312 8.2398594 11.919344 8.6308594 11.527344L9.4804688 10.677734L8.15625 9.2832031C7.76025 8.8652031 7.0983594 8.8585781 6.6933594 9.2675781L3 12.992188L3 5 z M 11 6 A 1 1 0 0 0 10 7 A 1 1 0 0 0 11 8 A 1 1 0 0 0 12 7 A 1 1 0 0 0 11 6 z M 20.984375 6.9863281 A 1.0001 1.0001 0 0 0 20 8L20 19L6 19 A 1.0001 1.0001 0 1 0 6 21L20 21C21.093063 21 22 20.093063 22 19L22 8 A 1.0001 1.0001 0 0 0 20.984375 6.9863281 z" fill="#FFFFFF" />
</svg>