<svg xmlns="http://www.w3.org/2000/svg" xmlns:xlink="http://www.w3.org/1999/xlink" viewBox="0 0 24 24" fill="#144364">
  <path d="M12,2C6.477,2,2,6.477,2,12s4.477,10,10,10s10-4.477,10-10S17.523,2,12,2z M11.293,16.707L8,13.414 C7.61,13.023,7.61,12.39,8,12l0,0c0.39-0.39,1.024-0.39,1.414,0L11,13.586V8c0-0.552,0.448-1,1-1h0c0.552,0,1,0.448,1,1v5.586 L14.586,12c0.39-0.39,1.024-0.39,1.414,0l0,0c0.39,0.39,0.39,1.024,0,1.414l-3.293,3.293C12.317,17.097,11.683,17.097,11.293,16.707 z" fill="#144364" />
</svg>