<svg xmlns="http://www.w3.org/2000/svg" xmlns:xlink="http://www.w3.org/1999/xlink" viewBox="0 0 24 24" fill="#144364">
  <path d="M15 0L15 3L13.052734 6.8945312C12.713734 7.5725312 12.020672 8 11.263672 8L5.4003906 8L3.6992188 6.3007812C3.2992188 5.9007812 2.7007813 5.9007813 2.3007812 6.3007812C1.9007813 6.7007813 1.9007812 7.2992187 2.3007812 7.6992188L4 9.4003906L4 11L4 13L3.1347656 14.730469C3.0457656 14.908469 2.9822187 15.099875 2.9492188 15.296875L2.2167969 19.697266C2.1027969 20.379266 2.6293125 21 3.3203125 21C3.8593125 21 4.322875 20.616891 4.421875 20.087891L5 17L7 15L13.556641 15L15.587891 20.316406C15.745891 20.727406 16.139078 21 16.580078 21C17.287078 21 17.796563 20.323531 17.601562 19.644531L16.5 15.814453L16.5 15L17.789062 12.421875C17.928062 12.144875 18 11.837344 18 11.527344L18 7L18.757812 7C19.553812 7 20.316906 6.6840938 20.878906 6.1210938L22 5L22 3.5C22 3.224 21.776 3 21.5 3L20 3L19.292969 2.2929688C19.104969 2.1049687 18.850938 2 18.585938 2L17.5 2L16.599609 0.80078125C16.221609 0.29678125 15.63 1.4802974e-16 15 0 z M 7.828125 17L7.4355469 17.392578L8.4921875 20.294922C8.6461875 20.717922 9.0509531 21 9.5019531 21C10.236953 21 10.753625 20.276078 10.515625 19.580078L9.6347656 17L7.828125 17 z" fill="#144364" />
</svg>