<svg xmlns="http://www.w3.org/2000/svg" xmlns:xlink="http://www.w3.org/1999/xlink" viewBox="0 0 24 24" fill="#FFFFFF">
  <path d="M11.188,1.361l-7,3.111C3.465,4.793,3,5.509,3,6.3V11c0,7.83,6.439,11.486,9,12c2.561-0.514,9-4.17,9-12V6.3 c0-0.79-0.465-1.507-1.188-1.828l-7-3.111C12.295,1.131,11.705,1.131,11.188,1.361z M10.293,15.707l-2.77-2.77 c-0.39-0.39-0.39-1.024,0-1.414l0,0c0.39-0.39,1.024-0.39,1.414,0L11,13.586l5.085-5.085c0.39-0.39,1.024-0.39,1.414,0v0 c0.39,0.39,0.39,1.024,0,1.414l-5.792,5.792C11.317,16.097,10.683,16.097,10.293,15.707z" fill="#FFFFFF" />
</svg>